# xmcd CD database file
#
# Track frame offsets:
#	150
#	12652
#	22686
#	34478
#	48513
#	63015
#	77969
#	92330
#	106373
#	122312
#	135593
#
# Disc length: 1965 seconds
#
# Revision: 1
# Processed by: cddbd v1.5.2PL0 Copyright (c) Steve Scherf et al.
# Submitted via: CDex 1.70beta2
#
DISCID=8007ab0b
DTITLE=Bill Hennessy - Hard Core Country
DYEAR=2001
DGENRE=Country
TTITLE0=Hard Core Country
TTITLE1=Evil in a Bottle
TTITLE2=Rockin By Baby
TTITLE3=Promised Land
TTITLE4=Flat Head Ford
TTITLE5=1000 Mile Heartache
TTITLE6=Silver Wings on the Juke Box
TTITLE7=The Ballad of Johnny Porter
TTITLE8=My Ex-Wives
TTITLE9=Cadillac Waitin'
TTITLE10=Old Memories
EXTD=YEAR: 2001
EXTT0=
EXTT1=
EXTT2=
EXTT3=
EXTT4=
EXTT5=
EXTT6=
EXTT7=
EXTT8=
EXTT9=
EXTT10=
PLAYORDER=
